{
  "accessors": [
    {
      "bufferView": 2,
      "componentType": 5126,
      "count": 1474,
      "max": [
        23.78460121154785,
        17.168922424316406,
        28.17840003967285
      ],
      "min": [
        -23.78460121154785,
        -13.298700332641602,
        -0.052799999713897705
      ],
      "type": "VEC3"
    },
    {
      "bufferView": 2,
      "byteOffset": 17688,
      "componentType": 5126,
      "count": 1474,
      "max": [
        0.9993621706962585,
        0.9991565346717834,
        0.999910295009613
      ],
      "min": [
        -0.9993621706962585,
        -0.9988048672676086,
        -0.9999009370803833
      ],
      "type": "VEC3"
    },
    {
      "bufferView": 1,
      "componentType": 5126,
      "count": 1474,
      "max": [
        0.99169921875,
        0.9887008666992188
      ],
      "min": [
        0.0081939697265625,
        0.00439453125
      ],
      "type": "VEC2"
    },
    {
      "bufferView": 0,
      "componentType": 5125,
      "count": 7992,
      "type": "SCALAR"
    },
    {
      "bufferView": 2,
      "byteOffset": 35376,
      "componentType": 5126,
      "count": 2564,
      "max": [
        21.84125518798828,
        13.726703643798828,
        106.7919921875
      ],
      "min": [
        -21.585899353027344,
        -14.478902816772461,
        20.752338409423828
      ],
      "type": "VEC3"
    },
    {
      "bufferView": 2,
      "byteOffset": 66144,
      "componentType": 5126,
      "count": 2564,
      "max": [
        0.999991238117218,
        0.9997944831848145,
        0.9997942447662354
      ],
      "min": [
        -0.999918520450592,
        -0.9994180798530579,
        -0.9998515248298645
      ],
      "type": "VEC3"
    },
    {
      "bufferView": 1,
      "byteOffset": 11792,
      "componentType": 5126,
      "count": 2564,
      "max": [
        0.994140625,
        0.9899215698242188
      ],
      "min": [
        0.006603240966796875,
        0.01025390625
      ],
      "type": "VEC2"
    },
    {
      "bufferView": 0,
      "byteOffset": 31968,
      "componentType": 5125,
      "count": 14634,
      "type": "SCALAR"
    },
    {
      "bufferView": 2,
      "byteOffset": 96912,
      "componentType": 5126,
      "count": 13273,
      "max": [
        53.680301666259766,
        19.2450008392334,
        164.52322387695313
      ],
      "min": [
        -53.680301666259766,
        -20.70920181274414,
        66.43920135498047
      ],
      "type": "VEC3"
    },
    {
      "bufferView": 2,
      "byteOffset": 256188,
      "componentType": 5126,
      "count": 13273,
      "max": [
        0.9999650716781616,
        0.9998931884765625,
        0.9995622634887695
      ],
      "min": [
        -0.9999650716781616,
        -0.9998944401741028,
        -0.9988328814506531
      ],
      "type": "VEC3"
    },
    {
      "bufferView": 1,
      "byteOffset": 32304,
      "componentType": 5126,
      "count": 13273,
      "max": [
        0.9921875,
        0.9925003051757813
      ],
      "min": [
        0.00679779052734375,
        0.0068359375
      ],
      "type": "VEC2"
    },
    {
      "bufferView": 0,
      "byteOffset": 90504,
      "componentType": 5125,
      "count": 73368,
      "type": "SCALAR"
    },
    {
      "bufferView": 2,
      "byteOffset": 415464,
      "componentType": 5126,
      "count": 9683,
      "max": [
        9.207929611206055,
        12.328472137451172,
        180.10353088378906
      ],
      "min": [
        -9.274785041809082,
        -9.816104888916016,
        148.77761840820313
      ],
      "type": "VEC3"
    },
    {
      "bufferView": 2,
      "byteOffset": 531660,
      "componentType": 5126,
      "count": 9683,
      "max": [
        0.999468207359314,
        0.9888830780982971,
        0.9997004866600037
      ],
      "min": [
        -0.9996667504310608,
        -0.9998127818107605,
        -0.9941155910491943
      ],
      "type": "VEC3"
    },
    {
      "bufferView": 1,
      "byteOffset": 138488,
      "componentType": 5126,
      "count": 9683,
      "max": [
        0.9916992783546448,
        0.9954490661621094
      ],
      "min": [
        0.00708770751953125,
        0.0146484375
      ],
      "type": "VEC2"
    },
    {
      "bufferView": 0,
      "byteOffset": 383976,
      "componentType": 5125,
      "count": 29952,
      "type": "SCALAR"
    },
    {
      "bufferView": 2,
      "byteOffset": 647856,
      "componentType": 5126,
      "count": 8336,
      "max": [
        7.375111103057861,
        12.983966827392578,
        23.936599731445313
      ],
      "min": [
        -7.868015766143799,
        -8.679115295410156,
        13.48785400390625
      ],
      "type": "VEC3"
    },
    {
      "bufferView": 2,
      "byteOffset": 747888,
      "componentType": 5126,
      "count": 8336,
      "max": [
        0.9978267550468445,
        0.9996859431266785,
        0.7704312801361084
      ],
      "min": [
        -0.9998318552970886,
        -0.9985560774803162,
        -0.9974954128265381
      ],
      "type": "VEC3"
    },
    {
      "bufferView": 1,
      "byteOffset": 215952,
      "componentType": 5126,
      "count": 8336,
      "max": [
        0.884765625,
        0.9987068176269531
      ],
      "min": [
        0.0211334228515625,
        0.00244140625
      ],
      "type": "VEC2"
    },
    {
      "bufferView": 0,
      "byteOffset": 503784,
      "componentType": 5125,
      "count": 34110,
      "type": "SCALAR"
    }
  ],
  "asset": {
    "extras": {
      "author": "YT-XTREMENINJA (https://sketchfab.com/dograanurag786)",
      "license": "CC-BY-4.0 (http://creativecommons.org/licenses/by/4.0/)",
      "source": "https://sketchfab.com/3d-models/time-traveller-set-pubgbgmi-3d-model-709dbf5c538343088e21f7b648999c07",
      "title": "⚡️Time Traveller Set Pubg/Bgmi 3D Model⚡️"
    },
    "generator": "Sketchfab-15.24.0",
    "version": "2.0"
  },
  "bufferViews": [
    {
      "buffer": 0,
      "byteLength": 640224,
      "name": "floatBufferViews",
      "target": 34963
    },
    {
      "buffer": 0,
      "byteLength": 282640,
      "byteOffset": 640224,
      "byteStride": 8,
      "name": "floatBufferViews",
      "target": 34962
    },
    {
      "buffer": 0,
      "byteLength": 847920,
      "byteOffset": 922864,
      "byteStride": 12,
      "name": "floatBufferViews",
      "target": 34962
    }
  ],
  "buffers": [
    {
      "byteLength": 1770784,
      "uri": "scene.bin"
    }
  ],
  "images": [
    {
      "uri": "textures/mat0.042_baseColor.png"
    },
    {
      "uri": "textures/mat0.041_baseColor.png"
    },
    {
      "uri": "textures/mat0.040_baseColor.png"
    },
    {
      "uri": "textures/mat0.044_baseColor.png"
    },
    {
      "uri": "textures/mat0.043_baseColor.png"
    }
  ],
  "materials": [
    {
      "doubleSided": true,
      "name": "mat0.042",
      "pbrMetallicRoughness": {
        "baseColorTexture": {
          "index": 0
        },
        "metallicFactor": 0.0,
        "roughnessFactor": 0.8308205978495098
      }
    },
    {
      "doubleSided": true,
      "name": "mat0.041",
      "pbrMetallicRoughness": {
        "baseColorTexture": {
          "index": 1
        },
        "metallicFactor": 0.0,
        "roughnessFactor": 0.8308205978495098
      }
    },
    {
      "doubleSided": true,
      "name": "mat0.040",
      "pbrMetallicRoughness": {
        "baseColorTexture": {
          "index": 2
        },
        "metallicFactor": 0.0,
        "roughnessFactor": 0.8308205978495098
      }
    },
    {
      "doubleSided": true,
      "name": "mat0.044",
      "pbrMetallicRoughness": {
        "baseColorTexture": {
          "index": 3
        },
        "metallicFactor": 0.0,
        "roughnessFactor": 0.8308205978495098
      }
    },
    {
      "doubleSided": true,
      "name": "mat0.043",
      "pbrMetallicRoughness": {
        "baseColorTexture": {
          "index": 4
        },
        "metallicFactor": 0.0,
        "roughnessFactor": 0.8308205978495098
      }
    }
  ],
  "meshes": [
    {
      "name": "4911 sachin yt_mat0.042_0",
      "primitives": [
        {
          "attributes": {
            "NORMAL": 1,
            "POSITION": 0,
            "TEXCOORD_0": 2
          },
          "indices": 3,
          "material": 0,
          "mode": 4
        }
      ]
    },
    {
      "name": "Mesh_0014.rip_mat0.041_0",
      "primitives": [
        {
          "attributes": {
            "NORMAL": 5,
            "POSITION": 4,
            "TEXCOORD_0": 6
          },
          "indices": 7,
          "material": 1,
          "mode": 4
        }
      ]
    },
    {
      "name": "Mesh_0015.rip_mat0.040_0",
      "primitives": [
        {
          "attributes": {
            "NORMAL": 9,
            "POSITION": 8,
            "TEXCOORD_0": 10
          },
          "indices": 11,
          "material": 2,
          "mode": 4
        }
      ]
    },
    {
      "name": "Mesh_0015.rip.001_mat0.044_0",
      "primitives": [
        {
          "attributes": {
            "NORMAL": 13,
            "POSITION": 12,
            "TEXCOORD_0": 14
          },
          "indices": 15,
          "material": 3,
          "mode": 4
        }
      ]
    },
    {
      "name": "Mesh_0017.rip_mat0.043_0",
      "primitives": [
        {
          "attributes": {
            "NORMAL": 17,
            "POSITION": 16,
            "TEXCOORD_0": 18
          },
          "indices": 19,
          "material": 4,
          "mode": 4
        }
      ]
    }
  ],
  "nodes": [
    {
      "children": [
        1
      ],
      "matrix": [
        -1.0,
        -6.290011496532519e-32,
        2.832769343193999e-16,
        0.0,
        2.832769343193999e-16,
        -2.220446049250313e-16,
        1.0,
        0.0,
        0.0,
        1.0,
        2.220446049250313e-16,
        0.0,
        0.0,
        0.0,
        0.0,
        1.0
      ],
      "name": "Sketchfab_model"
    },
    {
      "children": [
        2
      ],
      "matrix": [
        0.009999999776482582,
        0.0,
        0.0,
        0.0,
        0.0,
        0.0,
        0.009999999776482582,
        0.0,
        0.0,
        -0.009999999776482582,
        0.0,
        0.0,
        0.0,
        0.0,
        0.0,
        1.0
      ],
      "name": "untitled.fbx"
    },
    {
      "children": [
        3
      ],
      "name": "RootNode"
    },
    {
      "children": [
        4,
        5,
        7,
        9,
        11
      ],
      "matrix": [
        1.0,
        0.0,
        0.0,
        0.0,
        0.0,
        -1.6292067939183141e-07,
        -0.9999999999999868,
        0.0,
        0.0,
        0.9999999999999868,
        -1.6292067939183141e-07,
        0.0,
        0.0,
        0.0,
        0.0,
        1.0
      ],
      "name": "4911 sachin yt"
    },
    {
      "mesh": 0,
      "name": "4911 sachin yt_mat0.042_0"
    },
    {
      "children": [
        6
      ],
      "matrix": [
        1.0,
        0.0,
        0.0,
        0.0,
        0.0,
        1.0,
        -2.646977960169688e-23,
        0.0,
        0.0,
        2.646977960169688e-23,
        1.0,
        0.0,
        0.0,
        0.0,
        0.0,
        1.0
      ],
      "name": "Mesh_0014.rip"
    },
    {
      "mesh": 1,
      "name": "Mesh_0014.rip_mat0.041_0"
    },
    {
      "children": [
        8
      ],
      "matrix": [
        1.0,
        0.0,
        0.0,
        0.0,
        0.0,
        1.0,
        -2.646977960169688e-23,
        0.0,
        0.0,
        2.646977960169688e-23,
        1.0,
        0.0,
        0.0,
        0.0,
        0.0,
        1.0
      ],
      "name": "Mesh_0015.rip"
    },
    {
      "mesh": 2,
      "name": "Mesh_0015.rip_mat0.040_0"
    },
    {
      "children": [
        10
      ],
      "matrix": [
        1.0,
        0.0,
        0.0,
        0.0,
        0.0,
        1.0,
        -2.646977960169688e-23,
        0.0,
        0.0,
        2.646977960169688e-23,
        1.0,
        0.0,
        0.0,
        0.0,
        0.0,
        1.0
      ],
      "name": "Mesh_0015.rip.001"
    },
    {
      "mesh": 3,
      "name": "Mesh_0015.rip.001_mat0.044_0"
    },
    {
      "children": [
        12
      ],
      "matrix": [
        1.0,
        0.0,
        0.0,
        0.0,
        0.0,
        1.0,
        -2.646977960169688e-23,
        0.0,
        0.0,
        2.646977960169688e-23,
        1.0,
        0.0,
        0.0,
        -1.6770092248916626,
        158.56407165527344,
        1.0
      ],
      "name": "Mesh_0017.rip"
    },
    {
      "mesh": 4,
      "name": "Mesh_0017.rip_mat0.043_0"
    }
  ],
  "samplers": [
    {
      "magFilter": 9729,
      "minFilter": 9987,
      "wrapS": 10497,
      "wrapT": 10497
    }
  ],
  "scene": 0,
  "scenes": [
    {
      "name": "Sketchfab_Scene",
      "nodes": [
        0
      ]
    }
  ],
  "textures": [
    {
      "sampler": 0,
      "source": 0
    },
    {
      "sampler": 0,
      "source": 1
    },
    {
      "sampler": 0,
      "source": 2
    },
    {
      "sampler": 0,
      "source": 3
    },
    {
      "sampler": 0,
      "source": 4
    }
  ]
}
